M48
; DRILL file {KiCad (5.1.9)-1} date 12/28/20 18:37:14
; FORMAT={-:-/ absolute / metric / decimal}
; #@! TF.CreationDate,2020-12-28T18:37:14+08:00
; #@! TF.GenerationSoftware,Kicad,Pcbnew,(5.1.9)-1
FMAT,2
METRIC
T1C0.400
T2C0.500
T3C0.700
T4C0.750
T5C0.762
T6C1.000
T7C1.200
T8C1.500
T9C2.200
T10C1.500
%
G90
G05
T1
X131.1Y-112.0
X139.7Y-110.9
X139.7Y-118.0
X142.9Y-112.7
X142.9Y-119.9
X145.2Y-116.6
X145.7Y-110.9
X147.7Y-120.9
X149.7Y-112.7
X150.2Y-107.8
X150.2Y-108.8
X150.2Y-109.9
X154.3Y-104.1
X154.7Y-112.7
X155.6Y-111.7
X156.6Y-112.8
X157.85Y-116.65
X158.852Y-121.752
X159.2Y-113.8
X159.2Y-114.8
X159.5Y-115.8
X159.5Y-120.9
X159.9Y-107.4
X161.7Y-118.5
X162.2Y-119.9
X163.4Y-113.3
X164.2Y-110.8
X166.1Y-114.5
X174.195Y-123.205
X177.37Y-123.23
X189.4Y-129.3
X191.65Y-123.95
X192.4Y-123.2
X193.2Y-122.4
X194.0Y-121.6
X206.7Y-121.8
X206.7Y-123.9
X215.2Y-123.8
X215.4Y-121.7
X218.8Y-118.3
X218.9Y-120.0
T2
X110.0Y-118.8
X110.0Y-121.2
X110.2Y-116.2
X113.8Y-126.0
X114.0Y-104.2
X118.2Y-126.0
X147.8Y-107.2
X165.9Y-102.8
X165.9Y-104.3
X182.5Y-126.4
X183.2Y-125.7
X192.8Y-101.9
X193.9Y-101.9
X194.6Y-125.4
X195.1Y-101.9
X196.8Y-125.4
X202.9Y-112.7
X203.8Y-111.8
X204.7Y-110.9
X207.8Y-114.2
X207.8Y-115.4
X211.191Y-111.0
X211.191Y-112.904
X211.191Y-114.809
X216.9Y-102.3
X216.9Y-103.6
X216.9Y-104.9
T3
X222.407Y-116.069
X222.407Y-120.91
T4
X143.26Y-102.2
X144.53Y-102.2
X145.8Y-102.2
T6
X103.0Y-111.1
X103.0Y-113.64
X103.0Y-116.18
X103.0Y-118.72
X103.0Y-121.26
X153.48Y-102.0
X156.02Y-102.0
X158.56Y-102.0
X161.1Y-102.0
T7
X183.25Y-105.45
X187.75Y-105.45
X197.75Y-105.45
X202.25Y-105.45
T8
X182.0Y-108.15
X189.0Y-108.15
X196.5Y-108.15
X203.5Y-108.15
T9
X103.0Y-106.0
X103.0Y-126.0
X225.0Y-106.0
X225.0Y-126.0
T10
X126.419Y-123.7
X133.912Y-123.7
T3
G00X224.807Y-114.9
M15
G01X225.607Y-114.9
M16
G05
G00X224.807Y-122.1
M15
G01X225.607Y-122.1
M16
G05
T5
G00X171.798Y-104.3
M15
G01X171.803Y-104.3
M16
G05
G00X176.798Y-104.3
M15
G01X176.803Y-104.3
M16
G05
T0
M30
