%TF.GenerationSoftware,KiCad,Pcbnew,(5.1.9)-1*%
%TF.CreationDate,2020-12-28T18:37:18+08:00*%
%TF.ProjectId,kaika_clock_main,6b61696b-615f-4636-9c6f-636b5f6d6169,rev?*%
%TF.SameCoordinates,Original*%
%TF.FileFunction,Legend,Bot*%
%TF.FilePolarity,Positive*%
%FSLAX46Y46*%
G04 Gerber Fmt 4.6, Leading zero omitted, Abs format (unit mm)*
G04 Created by KiCad (PCBNEW (5.1.9)-1) date 2020-12-28 18:37:18*
%MOMM*%
%LPD*%
G01*
G04 APERTURE LIST*
%ADD10C,0.150000*%
G04 APERTURE END LIST*
D10*
X160700000Y-104490476D02*
X160652380Y-104414285D01*
X160652380Y-104300000D01*
X160700000Y-104185714D01*
X160795238Y-104109523D01*
X160890476Y-104071428D01*
X161080952Y-104033333D01*
X161223809Y-104033333D01*
X161414285Y-104071428D01*
X161509523Y-104109523D01*
X161604761Y-104185714D01*
X161652380Y-104300000D01*
X161652380Y-104376190D01*
X161604761Y-104490476D01*
X161557142Y-104528571D01*
X161223809Y-104528571D01*
X161223809Y-104376190D01*
X161652380Y-104871428D02*
X160652380Y-104871428D01*
X161652380Y-105328571D01*
X160652380Y-105328571D01*
X161652380Y-105709523D02*
X160652380Y-105709523D01*
X160652380Y-105900000D01*
X160700000Y-106014285D01*
X160795238Y-106090476D01*
X160890476Y-106128571D01*
X161080952Y-106166666D01*
X161223809Y-106166666D01*
X161414285Y-106128571D01*
X161509523Y-106090476D01*
X161604761Y-106014285D01*
X161652380Y-105900000D01*
X161652380Y-105709523D01*
X158871428Y-104100000D02*
X158871428Y-104709523D01*
X159252380Y-104404761D02*
X158490476Y-104404761D01*
X158252380Y-105014285D02*
X158252380Y-105509523D01*
X158633333Y-105242857D01*
X158633333Y-105357142D01*
X158680952Y-105433333D01*
X158728571Y-105471428D01*
X158823809Y-105509523D01*
X159061904Y-105509523D01*
X159157142Y-105471428D01*
X159204761Y-105433333D01*
X159252380Y-105357142D01*
X159252380Y-105128571D01*
X159204761Y-105052380D01*
X159157142Y-105014285D01*
X159157142Y-105852380D02*
X159204761Y-105890476D01*
X159252380Y-105852380D01*
X159204761Y-105814285D01*
X159157142Y-105852380D01*
X159252380Y-105852380D01*
X158252380Y-106157142D02*
X158252380Y-106652380D01*
X158633333Y-106385714D01*
X158633333Y-106500000D01*
X158680952Y-106576190D01*
X158728571Y-106614285D01*
X158823809Y-106652380D01*
X159061904Y-106652380D01*
X159157142Y-106614285D01*
X159204761Y-106576190D01*
X159252380Y-106500000D01*
X159252380Y-106271428D01*
X159204761Y-106195238D01*
X159157142Y-106157142D01*
X158252380Y-106880952D02*
X159252380Y-107147619D01*
X158252380Y-107414285D01*
X156604761Y-104104761D02*
X156652380Y-104219047D01*
X156652380Y-104409523D01*
X156604761Y-104485714D01*
X156557142Y-104523809D01*
X156461904Y-104561904D01*
X156366666Y-104561904D01*
X156271428Y-104523809D01*
X156223809Y-104485714D01*
X156176190Y-104409523D01*
X156128571Y-104257142D01*
X156080952Y-104180952D01*
X156033333Y-104142857D01*
X155938095Y-104104761D01*
X155842857Y-104104761D01*
X155747619Y-104142857D01*
X155700000Y-104180952D01*
X155652380Y-104257142D01*
X155652380Y-104447619D01*
X155700000Y-104561904D01*
X155652380Y-104828571D02*
X156652380Y-105019047D01*
X155938095Y-105171428D01*
X156652380Y-105323809D01*
X155652380Y-105514285D01*
X156652380Y-105819047D02*
X155652380Y-105819047D01*
X155652380Y-106009523D01*
X155700000Y-106123809D01*
X155795238Y-106200000D01*
X155890476Y-106238095D01*
X156080952Y-106276190D01*
X156223809Y-106276190D01*
X156414285Y-106238095D01*
X156509523Y-106200000D01*
X156604761Y-106123809D01*
X156652380Y-106009523D01*
X156652380Y-105819047D01*
X156652380Y-106619047D02*
X155652380Y-106619047D01*
X155652380Y-107152380D02*
X155652380Y-107304761D01*
X155700000Y-107380952D01*
X155795238Y-107457142D01*
X155985714Y-107495238D01*
X156319047Y-107495238D01*
X156509523Y-107457142D01*
X156604761Y-107380952D01*
X156652380Y-107304761D01*
X156652380Y-107152380D01*
X156604761Y-107076190D01*
X156509523Y-107000000D01*
X156319047Y-106961904D01*
X155985714Y-106961904D01*
X155795238Y-107000000D01*
X155700000Y-107076190D01*
X155652380Y-107152380D01*
X153804761Y-104090476D02*
X153852380Y-104204761D01*
X153852380Y-104395238D01*
X153804761Y-104471428D01*
X153757142Y-104509523D01*
X153661904Y-104547619D01*
X153566666Y-104547619D01*
X153471428Y-104509523D01*
X153423809Y-104471428D01*
X153376190Y-104395238D01*
X153328571Y-104242857D01*
X153280952Y-104166666D01*
X153233333Y-104128571D01*
X153138095Y-104090476D01*
X153042857Y-104090476D01*
X152947619Y-104128571D01*
X152900000Y-104166666D01*
X152852380Y-104242857D01*
X152852380Y-104433333D01*
X152900000Y-104547619D01*
X152852380Y-104814285D02*
X153852380Y-105004761D01*
X153138095Y-105157142D01*
X153852380Y-105309523D01*
X152852380Y-105500000D01*
X153757142Y-106261904D02*
X153804761Y-106223809D01*
X153852380Y-106109523D01*
X153852380Y-106033333D01*
X153804761Y-105919047D01*
X153709523Y-105842857D01*
X153614285Y-105804761D01*
X153423809Y-105766666D01*
X153280952Y-105766666D01*
X153090476Y-105804761D01*
X152995238Y-105842857D01*
X152900000Y-105919047D01*
X152852380Y-106033333D01*
X152852380Y-106109523D01*
X152900000Y-106223809D01*
X152947619Y-106261904D01*
X153852380Y-106985714D02*
X153852380Y-106604761D01*
X152852380Y-106604761D01*
X153852380Y-107252380D02*
X152852380Y-107252380D01*
X153852380Y-107709523D02*
X153280952Y-107366666D01*
X152852380Y-107709523D02*
X153423809Y-107252380D01*
X108052381Y-121704761D02*
X107909524Y-121752380D01*
X107671428Y-121752380D01*
X107576190Y-121704761D01*
X107528571Y-121657142D01*
X107480952Y-121561904D01*
X107480952Y-121466666D01*
X107528571Y-121371428D01*
X107576190Y-121323809D01*
X107671428Y-121276190D01*
X107861905Y-121228571D01*
X107957143Y-121180952D01*
X108004762Y-121133333D01*
X108052381Y-121038095D01*
X108052381Y-120942857D01*
X108004762Y-120847619D01*
X107957143Y-120800000D01*
X107861905Y-120752380D01*
X107623809Y-120752380D01*
X107480952Y-120800000D01*
X106480952Y-121657142D02*
X106528571Y-121704761D01*
X106671428Y-121752380D01*
X106766667Y-121752380D01*
X106909524Y-121704761D01*
X107004762Y-121609523D01*
X107052381Y-121514285D01*
X107100000Y-121323809D01*
X107100000Y-121180952D01*
X107052381Y-120990476D01*
X107004762Y-120895238D01*
X106909524Y-120800000D01*
X106766667Y-120752380D01*
X106671428Y-120752380D01*
X106528571Y-120800000D01*
X106480952Y-120847619D01*
X106052381Y-121752380D02*
X106052381Y-120752380D01*
X105480952Y-121752380D02*
X105909524Y-121180952D01*
X105480952Y-120752380D02*
X106052381Y-121323809D01*
X108671428Y-119352380D02*
X108671428Y-118352380D01*
X108338095Y-119066666D01*
X108004761Y-118352380D01*
X108004761Y-119352380D01*
X107338095Y-118352380D02*
X107147619Y-118352380D01*
X107052380Y-118400000D01*
X106957142Y-118495238D01*
X106909523Y-118685714D01*
X106909523Y-119019047D01*
X106957142Y-119209523D01*
X107052380Y-119304761D01*
X107147619Y-119352380D01*
X107338095Y-119352380D01*
X107433333Y-119304761D01*
X107528571Y-119209523D01*
X107576190Y-119019047D01*
X107576190Y-118685714D01*
X107528571Y-118495238D01*
X107433333Y-118400000D01*
X107338095Y-118352380D01*
X106528571Y-119304761D02*
X106385714Y-119352380D01*
X106147619Y-119352380D01*
X106052380Y-119304761D01*
X106004761Y-119257142D01*
X105957142Y-119161904D01*
X105957142Y-119066666D01*
X106004761Y-118971428D01*
X106052380Y-118923809D01*
X106147619Y-118876190D01*
X106338095Y-118828571D01*
X106433333Y-118780952D01*
X106480952Y-118733333D01*
X106528571Y-118638095D01*
X106528571Y-118542857D01*
X106480952Y-118447619D01*
X106433333Y-118400000D01*
X106338095Y-118352380D01*
X106100000Y-118352380D01*
X105957142Y-118400000D01*
X105528571Y-119352380D02*
X105528571Y-118352380D01*
X107576190Y-110500000D02*
X107671428Y-110452380D01*
X107814286Y-110452380D01*
X107957143Y-110500000D01*
X108052381Y-110595238D01*
X108100000Y-110690476D01*
X108147619Y-110880952D01*
X108147619Y-111023809D01*
X108100000Y-111214285D01*
X108052381Y-111309523D01*
X107957143Y-111404761D01*
X107814286Y-111452380D01*
X107719047Y-111452380D01*
X107576190Y-111404761D01*
X107528571Y-111357142D01*
X107528571Y-111023809D01*
X107719047Y-111023809D01*
X107100000Y-111452380D02*
X107100000Y-110452380D01*
X106528571Y-111452380D01*
X106528571Y-110452380D01*
X106052381Y-111452380D02*
X106052381Y-110452380D01*
X105814286Y-110452380D01*
X105671428Y-110500000D01*
X105576190Y-110595238D01*
X105528571Y-110690476D01*
X105480952Y-110880952D01*
X105480952Y-111023809D01*
X105528571Y-111214285D01*
X105576190Y-111309523D01*
X105671428Y-111404761D01*
X105814286Y-111452380D01*
X106052381Y-111452380D01*
X106433333Y-116557142D02*
X106480952Y-116604761D01*
X106623809Y-116652380D01*
X106719047Y-116652380D01*
X106861905Y-116604761D01*
X106957143Y-116509523D01*
X107004762Y-116414285D01*
X107052381Y-116223809D01*
X107052381Y-116080952D01*
X107004762Y-115890476D01*
X106957143Y-115795238D01*
X106861905Y-115700000D01*
X106719047Y-115652380D01*
X106623809Y-115652380D01*
X106480952Y-115700000D01*
X106433333Y-115747619D01*
X106052381Y-116604761D02*
X105909524Y-116652380D01*
X105671428Y-116652380D01*
X105576190Y-116604761D01*
X105528571Y-116557142D01*
X105480952Y-116461904D01*
X105480952Y-116366666D01*
X105528571Y-116271428D01*
X105576190Y-116223809D01*
X105671428Y-116176190D01*
X105861905Y-116128571D01*
X105957143Y-116080952D01*
X106004762Y-116033333D01*
X106052381Y-115938095D01*
X106052381Y-115842857D01*
X106004762Y-115747619D01*
X105957143Y-115700000D01*
X105861905Y-115652380D01*
X105623809Y-115652380D01*
X105480952Y-115700000D01*
X108052381Y-113052380D02*
X107719048Y-114052380D01*
X107385714Y-113052380D01*
X106480952Y-113957142D02*
X106528571Y-114004761D01*
X106671428Y-114052380D01*
X106766667Y-114052380D01*
X106909524Y-114004761D01*
X107004762Y-113909523D01*
X107052381Y-113814285D01*
X107100000Y-113623809D01*
X107100000Y-113480952D01*
X107052381Y-113290476D01*
X107004762Y-113195238D01*
X106909524Y-113100000D01*
X106766667Y-113052380D01*
X106671428Y-113052380D01*
X106528571Y-113100000D01*
X106480952Y-113147619D01*
X105480952Y-113957142D02*
X105528571Y-114004761D01*
X105671428Y-114052380D01*
X105766667Y-114052380D01*
X105909524Y-114004761D01*
X106004762Y-113909523D01*
X106052381Y-113814285D01*
X106100000Y-113623809D01*
X106100000Y-113480952D01*
X106052381Y-113290476D01*
X106004762Y-113195238D01*
X105909524Y-113100000D01*
X105766667Y-113052380D01*
X105671428Y-113052380D01*
X105528571Y-113100000D01*
X105480952Y-113147619D01*
X136438095Y-103052380D02*
X136438095Y-102052380D01*
X136200000Y-102052380D01*
X136057142Y-102100000D01*
X135961904Y-102195238D01*
X135914285Y-102290476D01*
X135866666Y-102480952D01*
X135866666Y-102623809D01*
X135914285Y-102814285D01*
X135961904Y-102909523D01*
X136057142Y-103004761D01*
X136200000Y-103052380D01*
X136438095Y-103052380D01*
X135057142Y-103004761D02*
X135152380Y-103052380D01*
X135342857Y-103052380D01*
X135438095Y-103004761D01*
X135485714Y-102909523D01*
X135485714Y-102528571D01*
X135438095Y-102433333D01*
X135342857Y-102385714D01*
X135152380Y-102385714D01*
X135057142Y-102433333D01*
X135009523Y-102528571D01*
X135009523Y-102623809D01*
X135485714Y-102719047D01*
X134628571Y-103004761D02*
X134533333Y-103052380D01*
X134342857Y-103052380D01*
X134247619Y-103004761D01*
X134200000Y-102909523D01*
X134200000Y-102861904D01*
X134247619Y-102766666D01*
X134342857Y-102719047D01*
X134485714Y-102719047D01*
X134580952Y-102671428D01*
X134628571Y-102576190D01*
X134628571Y-102528571D01*
X134580952Y-102433333D01*
X134485714Y-102385714D01*
X134342857Y-102385714D01*
X134247619Y-102433333D01*
X133771428Y-103052380D02*
X133771428Y-102385714D01*
X133771428Y-102052380D02*
X133819047Y-102100000D01*
X133771428Y-102147619D01*
X133723809Y-102100000D01*
X133771428Y-102052380D01*
X133771428Y-102147619D01*
X132866666Y-102385714D02*
X132866666Y-103195238D01*
X132914285Y-103290476D01*
X132961904Y-103338095D01*
X133057142Y-103385714D01*
X133200000Y-103385714D01*
X133295238Y-103338095D01*
X132866666Y-103004761D02*
X132961904Y-103052380D01*
X133152380Y-103052380D01*
X133247619Y-103004761D01*
X133295238Y-102957142D01*
X133342857Y-102861904D01*
X133342857Y-102576190D01*
X133295238Y-102480952D01*
X133247619Y-102433333D01*
X133152380Y-102385714D01*
X132961904Y-102385714D01*
X132866666Y-102433333D01*
X132390476Y-102385714D02*
X132390476Y-103052380D01*
X132390476Y-102480952D02*
X132342857Y-102433333D01*
X132247619Y-102385714D01*
X132104761Y-102385714D01*
X132009523Y-102433333D01*
X131961904Y-102528571D01*
X131961904Y-103052380D01*
X130390476Y-102528571D02*
X130247619Y-102576190D01*
X130200000Y-102623809D01*
X130152380Y-102719047D01*
X130152380Y-102861904D01*
X130200000Y-102957142D01*
X130247619Y-103004761D01*
X130342857Y-103052380D01*
X130723809Y-103052380D01*
X130723809Y-102052380D01*
X130390476Y-102052380D01*
X130295238Y-102100000D01*
X130247619Y-102147619D01*
X130200000Y-102242857D01*
X130200000Y-102338095D01*
X130247619Y-102433333D01*
X130295238Y-102480952D01*
X130390476Y-102528571D01*
X130723809Y-102528571D01*
X129819047Y-102385714D02*
X129580952Y-103052380D01*
X129342857Y-102385714D02*
X129580952Y-103052380D01*
X129676190Y-103290476D01*
X129723809Y-103338095D01*
X129819047Y-103385714D01*
X128342857Y-102052380D02*
X127771428Y-102052380D01*
X128057142Y-103052380D02*
X128057142Y-102052380D01*
X127057142Y-103004761D02*
X127152380Y-103052380D01*
X127342857Y-103052380D01*
X127438095Y-103004761D01*
X127485714Y-102909523D01*
X127485714Y-102528571D01*
X127438095Y-102433333D01*
X127342857Y-102385714D01*
X127152380Y-102385714D01*
X127057142Y-102433333D01*
X127009523Y-102528571D01*
X127009523Y-102623809D01*
X127485714Y-102719047D01*
X126152380Y-103052380D02*
X126152380Y-102528571D01*
X126200000Y-102433333D01*
X126295238Y-102385714D01*
X126485714Y-102385714D01*
X126580952Y-102433333D01*
X126152380Y-103004761D02*
X126247619Y-103052380D01*
X126485714Y-103052380D01*
X126580952Y-103004761D01*
X126628571Y-102909523D01*
X126628571Y-102814285D01*
X126580952Y-102719047D01*
X126485714Y-102671428D01*
X126247619Y-102671428D01*
X126152380Y-102623809D01*
X125676190Y-103052380D02*
X125676190Y-102385714D01*
X125676190Y-102480952D02*
X125628571Y-102433333D01*
X125533333Y-102385714D01*
X125390476Y-102385714D01*
X125295238Y-102433333D01*
X125247619Y-102528571D01*
X125247619Y-103052380D01*
X125247619Y-102528571D02*
X125200000Y-102433333D01*
X125104761Y-102385714D01*
X124961904Y-102385714D01*
X124866666Y-102433333D01*
X124819047Y-102528571D01*
X124819047Y-103052380D01*
X123580952Y-103052380D02*
X123580952Y-102052380D01*
X123009523Y-103052380D02*
X123438095Y-102480952D01*
X123009523Y-102052380D02*
X123580952Y-102623809D01*
X122152380Y-103052380D02*
X122152380Y-102528571D01*
X122200000Y-102433333D01*
X122295238Y-102385714D01*
X122485714Y-102385714D01*
X122580952Y-102433333D01*
X122152380Y-103004761D02*
X122247619Y-103052380D01*
X122485714Y-103052380D01*
X122580952Y-103004761D01*
X122628571Y-102909523D01*
X122628571Y-102814285D01*
X122580952Y-102719047D01*
X122485714Y-102671428D01*
X122247619Y-102671428D01*
X122152380Y-102623809D01*
X121676190Y-103052380D02*
X121676190Y-102385714D01*
X121676190Y-102052380D02*
X121723809Y-102100000D01*
X121676190Y-102147619D01*
X121628571Y-102100000D01*
X121676190Y-102052380D01*
X121676190Y-102147619D01*
X121200000Y-103052380D02*
X121200000Y-102052380D01*
X121104761Y-102671428D02*
X120819047Y-103052380D01*
X120819047Y-102385714D02*
X121200000Y-102766666D01*
X119961904Y-103052380D02*
X119961904Y-102528571D01*
X120009523Y-102433333D01*
X120104761Y-102385714D01*
X120295238Y-102385714D01*
X120390476Y-102433333D01*
X119961904Y-103004761D02*
X120057142Y-103052380D01*
X120295238Y-103052380D01*
X120390476Y-103004761D01*
X120438095Y-102909523D01*
X120438095Y-102814285D01*
X120390476Y-102719047D01*
X120295238Y-102671428D01*
X120057142Y-102671428D01*
X119961904Y-102623809D01*
M02*
