%TF.GenerationSoftware,KiCad,Pcbnew,(5.1.9)-1*%
%TF.CreationDate,2020-12-28T18:37:18+08:00*%
%TF.ProjectId,kaika_clock_main,6b61696b-615f-4636-9c6f-636b5f6d6169,rev?*%
%TF.SameCoordinates,Original*%
%TF.FileFunction,Paste,Top*%
%TF.FilePolarity,Positive*%
%FSLAX46Y46*%
G04 Gerber Fmt 4.6, Leading zero omitted, Abs format (unit mm)*
G04 Created by KiCad (PCBNEW (5.1.9)-1) date 2020-12-28 18:37:18*
%MOMM*%
%LPD*%
G01*
G04 APERTURE LIST*
%ADD10R,1.999996X0.450012*%
%ADD11R,1.199998X0.999998*%
%ADD12R,4.499991X3.999992*%
%ADD13R,1.500000X2.000000*%
%ADD14R,3.800000X2.000000*%
%ADD15R,7.875000X2.000000*%
G04 APERTURE END LIST*
%TO.C,R13*%
G36*
G01*
X211800000Y-123349999D02*
X211800000Y-124250001D01*
G75*
G02*
X211550001Y-124500000I-249999J0D01*
G01*
X210849999Y-124500000D01*
G75*
G02*
X210600000Y-124250001I0J249999D01*
G01*
X210600000Y-123349999D01*
G75*
G02*
X210849999Y-123100000I249999J0D01*
G01*
X211550001Y-123100000D01*
G75*
G02*
X211800000Y-123349999I0J-249999D01*
G01*
G37*
G36*
G01*
X213800000Y-123349999D02*
X213800000Y-124250001D01*
G75*
G02*
X213550001Y-124500000I-249999J0D01*
G01*
X212849999Y-124500000D01*
G75*
G02*
X212600000Y-124250001I0J249999D01*
G01*
X212600000Y-123349999D01*
G75*
G02*
X212849999Y-123100000I249999J0D01*
G01*
X213550001Y-123100000D01*
G75*
G02*
X213800000Y-123349999I0J-249999D01*
G01*
G37*
%TD*%
%TO.C,C17*%
G36*
G01*
X143975000Y-125650000D02*
X143025000Y-125650000D01*
G75*
G02*
X142775000Y-125400000I0J250000D01*
G01*
X142775000Y-124725000D01*
G75*
G02*
X143025000Y-124475000I250000J0D01*
G01*
X143975000Y-124475000D01*
G75*
G02*
X144225000Y-124725000I0J-250000D01*
G01*
X144225000Y-125400000D01*
G75*
G02*
X143975000Y-125650000I-250000J0D01*
G01*
G37*
G36*
G01*
X143975000Y-127725000D02*
X143025000Y-127725000D01*
G75*
G02*
X142775000Y-127475000I0J250000D01*
G01*
X142775000Y-126800000D01*
G75*
G02*
X143025000Y-126550000I250000J0D01*
G01*
X143975000Y-126550000D01*
G75*
G02*
X144225000Y-126800000I0J-250000D01*
G01*
X144225000Y-127475000D01*
G75*
G02*
X143975000Y-127725000I-250000J0D01*
G01*
G37*
%TD*%
%TO.C,C16*%
G36*
G01*
X123225000Y-112450000D02*
X124175000Y-112450000D01*
G75*
G02*
X124425000Y-112700000I0J-250000D01*
G01*
X124425000Y-113375000D01*
G75*
G02*
X124175000Y-113625000I-250000J0D01*
G01*
X123225000Y-113625000D01*
G75*
G02*
X122975000Y-113375000I0J250000D01*
G01*
X122975000Y-112700000D01*
G75*
G02*
X123225000Y-112450000I250000J0D01*
G01*
G37*
G36*
G01*
X123225000Y-110375000D02*
X124175000Y-110375000D01*
G75*
G02*
X124425000Y-110625000I0J-250000D01*
G01*
X124425000Y-111300000D01*
G75*
G02*
X124175000Y-111550000I-250000J0D01*
G01*
X123225000Y-111550000D01*
G75*
G02*
X122975000Y-111300000I0J250000D01*
G01*
X122975000Y-110625000D01*
G75*
G02*
X123225000Y-110375000I250000J0D01*
G01*
G37*
%TD*%
D10*
%TO.C,P1*%
X222392586Y-119810386D03*
X222392586Y-119160400D03*
X222392586Y-118510414D03*
X222392586Y-117860428D03*
X222392586Y-117210442D03*
%TD*%
%TO.C,C1*%
G36*
G01*
X223150000Y-110775000D02*
X223150000Y-109825000D01*
G75*
G02*
X223400000Y-109575000I250000J0D01*
G01*
X224075000Y-109575000D01*
G75*
G02*
X224325000Y-109825000I0J-250000D01*
G01*
X224325000Y-110775000D01*
G75*
G02*
X224075000Y-111025000I-250000J0D01*
G01*
X223400000Y-111025000D01*
G75*
G02*
X223150000Y-110775000I0J250000D01*
G01*
G37*
G36*
G01*
X221075000Y-110775000D02*
X221075000Y-109825000D01*
G75*
G02*
X221325000Y-109575000I250000J0D01*
G01*
X222000000Y-109575000D01*
G75*
G02*
X222250000Y-109825000I0J-250000D01*
G01*
X222250000Y-110775000D01*
G75*
G02*
X222000000Y-111025000I-250000J0D01*
G01*
X221325000Y-111025000D01*
G75*
G02*
X221075000Y-110775000I0J250000D01*
G01*
G37*
%TD*%
%TO.C,D2*%
G36*
G01*
X108250000Y-101850001D02*
X108250000Y-100949999D01*
G75*
G02*
X108499999Y-100700000I249999J0D01*
G01*
X109150001Y-100700000D01*
G75*
G02*
X109400000Y-100949999I0J-249999D01*
G01*
X109400000Y-101850001D01*
G75*
G02*
X109150001Y-102100000I-249999J0D01*
G01*
X108499999Y-102100000D01*
G75*
G02*
X108250000Y-101850001I0J249999D01*
G01*
G37*
G36*
G01*
X106200000Y-101850001D02*
X106200000Y-100949999D01*
G75*
G02*
X106449999Y-100700000I249999J0D01*
G01*
X107100001Y-100700000D01*
G75*
G02*
X107350000Y-100949999I0J-249999D01*
G01*
X107350000Y-101850001D01*
G75*
G02*
X107100001Y-102100000I-249999J0D01*
G01*
X106449999Y-102100000D01*
G75*
G02*
X106200000Y-101850001I0J249999D01*
G01*
G37*
%TD*%
%TO.C,R15*%
G36*
G01*
X113400000Y-101850001D02*
X113400000Y-100949999D01*
G75*
G02*
X113649999Y-100700000I249999J0D01*
G01*
X114350001Y-100700000D01*
G75*
G02*
X114600000Y-100949999I0J-249999D01*
G01*
X114600000Y-101850001D01*
G75*
G02*
X114350001Y-102100000I-249999J0D01*
G01*
X113649999Y-102100000D01*
G75*
G02*
X113400000Y-101850001I0J249999D01*
G01*
G37*
G36*
G01*
X111400000Y-101850001D02*
X111400000Y-100949999D01*
G75*
G02*
X111649999Y-100700000I249999J0D01*
G01*
X112350001Y-100700000D01*
G75*
G02*
X112600000Y-100949999I0J-249999D01*
G01*
X112600000Y-101850001D01*
G75*
G02*
X112350001Y-102100000I-249999J0D01*
G01*
X111649999Y-102100000D01*
G75*
G02*
X111400000Y-101850001I0J249999D01*
G01*
G37*
%TD*%
%TO.C,R14*%
G36*
G01*
X211800000Y-121325683D02*
X211800000Y-122225685D01*
G75*
G02*
X211550001Y-122475684I-249999J0D01*
G01*
X210849999Y-122475684D01*
G75*
G02*
X210600000Y-122225685I0J249999D01*
G01*
X210600000Y-121325683D01*
G75*
G02*
X210849999Y-121075684I249999J0D01*
G01*
X211550001Y-121075684D01*
G75*
G02*
X211800000Y-121325683I0J-249999D01*
G01*
G37*
G36*
G01*
X213800000Y-121325683D02*
X213800000Y-122225685D01*
G75*
G02*
X213550001Y-122475684I-249999J0D01*
G01*
X212849999Y-122475684D01*
G75*
G02*
X212600000Y-122225685I0J249999D01*
G01*
X212600000Y-121325683D01*
G75*
G02*
X212849999Y-121075684I249999J0D01*
G01*
X213550001Y-121075684D01*
G75*
G02*
X213800000Y-121325683I0J-249999D01*
G01*
G37*
%TD*%
%TO.C,R12*%
G36*
G01*
X211800000Y-119201369D02*
X211800000Y-120101371D01*
G75*
G02*
X211550001Y-120351370I-249999J0D01*
G01*
X210849999Y-120351370D01*
G75*
G02*
X210600000Y-120101371I0J249999D01*
G01*
X210600000Y-119201369D01*
G75*
G02*
X210849999Y-118951370I249999J0D01*
G01*
X211550001Y-118951370D01*
G75*
G02*
X211800000Y-119201369I0J-249999D01*
G01*
G37*
G36*
G01*
X213800000Y-119201369D02*
X213800000Y-120101371D01*
G75*
G02*
X213550001Y-120351370I-249999J0D01*
G01*
X212849999Y-120351370D01*
G75*
G02*
X212600000Y-120101371I0J249999D01*
G01*
X212600000Y-119201369D01*
G75*
G02*
X212849999Y-118951370I249999J0D01*
G01*
X213550001Y-118951370D01*
G75*
G02*
X213800000Y-119201369I0J-249999D01*
G01*
G37*
%TD*%
%TO.C,R10*%
G36*
G01*
X205549999Y-105300000D02*
X206450001Y-105300000D01*
G75*
G02*
X206700000Y-105549999I0J-249999D01*
G01*
X206700000Y-106250001D01*
G75*
G02*
X206450001Y-106500000I-249999J0D01*
G01*
X205549999Y-106500000D01*
G75*
G02*
X205300000Y-106250001I0J249999D01*
G01*
X205300000Y-105549999D01*
G75*
G02*
X205549999Y-105300000I249999J0D01*
G01*
G37*
G36*
G01*
X205549999Y-103300000D02*
X206450001Y-103300000D01*
G75*
G02*
X206700000Y-103549999I0J-249999D01*
G01*
X206700000Y-104250001D01*
G75*
G02*
X206450001Y-104500000I-249999J0D01*
G01*
X205549999Y-104500000D01*
G75*
G02*
X205300000Y-104250001I0J249999D01*
G01*
X205300000Y-103549999D01*
G75*
G02*
X205549999Y-103300000I249999J0D01*
G01*
G37*
%TD*%
%TO.C,R11*%
G36*
G01*
X192249999Y-106100000D02*
X193150001Y-106100000D01*
G75*
G02*
X193400000Y-106349999I0J-249999D01*
G01*
X193400000Y-107050001D01*
G75*
G02*
X193150001Y-107300000I-249999J0D01*
G01*
X192249999Y-107300000D01*
G75*
G02*
X192000000Y-107050001I0J249999D01*
G01*
X192000000Y-106349999D01*
G75*
G02*
X192249999Y-106100000I249999J0D01*
G01*
G37*
G36*
G01*
X192249999Y-104100000D02*
X193150001Y-104100000D01*
G75*
G02*
X193400000Y-104349999I0J-249999D01*
G01*
X193400000Y-105050001D01*
G75*
G02*
X193150001Y-105300000I-249999J0D01*
G01*
X192249999Y-105300000D01*
G75*
G02*
X192000000Y-105050001I0J249999D01*
G01*
X192000000Y-104349999D01*
G75*
G02*
X192249999Y-104100000I249999J0D01*
G01*
G37*
%TD*%
%TO.C,C15*%
G36*
G01*
X185950000Y-101875000D02*
X185950000Y-100925000D01*
G75*
G02*
X186200000Y-100675000I250000J0D01*
G01*
X186875000Y-100675000D01*
G75*
G02*
X187125000Y-100925000I0J-250000D01*
G01*
X187125000Y-101875000D01*
G75*
G02*
X186875000Y-102125000I-250000J0D01*
G01*
X186200000Y-102125000D01*
G75*
G02*
X185950000Y-101875000I0J250000D01*
G01*
G37*
G36*
G01*
X183875000Y-101875000D02*
X183875000Y-100925000D01*
G75*
G02*
X184125000Y-100675000I250000J0D01*
G01*
X184800000Y-100675000D01*
G75*
G02*
X185050000Y-100925000I0J-250000D01*
G01*
X185050000Y-101875000D01*
G75*
G02*
X184800000Y-102125000I-250000J0D01*
G01*
X184125000Y-102125000D01*
G75*
G02*
X183875000Y-101875000I0J250000D01*
G01*
G37*
%TD*%
%TO.C,C14*%
G36*
G01*
X200450000Y-101875000D02*
X200450000Y-100925000D01*
G75*
G02*
X200700000Y-100675000I250000J0D01*
G01*
X201375000Y-100675000D01*
G75*
G02*
X201625000Y-100925000I0J-250000D01*
G01*
X201625000Y-101875000D01*
G75*
G02*
X201375000Y-102125000I-250000J0D01*
G01*
X200700000Y-102125000D01*
G75*
G02*
X200450000Y-101875000I0J250000D01*
G01*
G37*
G36*
G01*
X198375000Y-101875000D02*
X198375000Y-100925000D01*
G75*
G02*
X198625000Y-100675000I250000J0D01*
G01*
X199300000Y-100675000D01*
G75*
G02*
X199550000Y-100925000I0J-250000D01*
G01*
X199550000Y-101875000D01*
G75*
G02*
X199300000Y-102125000I-250000J0D01*
G01*
X198625000Y-102125000D01*
G75*
G02*
X198375000Y-101875000I0J250000D01*
G01*
G37*
%TD*%
%TO.C,R9*%
G36*
G01*
X166500000Y-106249999D02*
X166500000Y-107150001D01*
G75*
G02*
X166250001Y-107400000I-249999J0D01*
G01*
X165549999Y-107400000D01*
G75*
G02*
X165300000Y-107150001I0J249999D01*
G01*
X165300000Y-106249999D01*
G75*
G02*
X165549999Y-106000000I249999J0D01*
G01*
X166250001Y-106000000D01*
G75*
G02*
X166500000Y-106249999I0J-249999D01*
G01*
G37*
G36*
G01*
X168500000Y-106249999D02*
X168500000Y-107150001D01*
G75*
G02*
X168250001Y-107400000I-249999J0D01*
G01*
X167549999Y-107400000D01*
G75*
G02*
X167300000Y-107150001I0J249999D01*
G01*
X167300000Y-106249999D01*
G75*
G02*
X167549999Y-106000000I249999J0D01*
G01*
X168250001Y-106000000D01*
G75*
G02*
X168500000Y-106249999I0J-249999D01*
G01*
G37*
%TD*%
%TO.C,R8*%
G36*
G01*
X144100000Y-106849999D02*
X144100000Y-107750001D01*
G75*
G02*
X143850001Y-108000000I-249999J0D01*
G01*
X143149999Y-108000000D01*
G75*
G02*
X142900000Y-107750001I0J249999D01*
G01*
X142900000Y-106849999D01*
G75*
G02*
X143149999Y-106600000I249999J0D01*
G01*
X143850001Y-106600000D01*
G75*
G02*
X144100000Y-106849999I0J-249999D01*
G01*
G37*
G36*
G01*
X146100000Y-106849999D02*
X146100000Y-107750001D01*
G75*
G02*
X145850001Y-108000000I-249999J0D01*
G01*
X145149999Y-108000000D01*
G75*
G02*
X144900000Y-107750001I0J249999D01*
G01*
X144900000Y-106849999D01*
G75*
G02*
X145149999Y-106600000I249999J0D01*
G01*
X145850001Y-106600000D01*
G75*
G02*
X146100000Y-106849999I0J-249999D01*
G01*
G37*
%TD*%
%TO.C,R7*%
G36*
G01*
X168849999Y-111100000D02*
X169750001Y-111100000D01*
G75*
G02*
X170000000Y-111349999I0J-249999D01*
G01*
X170000000Y-112050001D01*
G75*
G02*
X169750001Y-112300000I-249999J0D01*
G01*
X168849999Y-112300000D01*
G75*
G02*
X168600000Y-112050001I0J249999D01*
G01*
X168600000Y-111349999D01*
G75*
G02*
X168849999Y-111100000I249999J0D01*
G01*
G37*
G36*
G01*
X168849999Y-109100000D02*
X169750001Y-109100000D01*
G75*
G02*
X170000000Y-109349999I0J-249999D01*
G01*
X170000000Y-110050001D01*
G75*
G02*
X169750001Y-110300000I-249999J0D01*
G01*
X168849999Y-110300000D01*
G75*
G02*
X168600000Y-110050001I0J249999D01*
G01*
X168600000Y-109349999D01*
G75*
G02*
X168849999Y-109100000I249999J0D01*
G01*
G37*
%TD*%
D11*
%TO.C,SW2*%
X205600018Y-129300000D03*
X198199982Y-129300000D03*
%TD*%
D12*
%TO.C,U5*%
X137620000Y-123700000D03*
X122380000Y-123700000D03*
%TD*%
%TO.C,C13*%
G36*
G01*
X209925000Y-108250000D02*
X210875000Y-108250000D01*
G75*
G02*
X211125000Y-108500000I0J-250000D01*
G01*
X211125000Y-109175000D01*
G75*
G02*
X210875000Y-109425000I-250000J0D01*
G01*
X209925000Y-109425000D01*
G75*
G02*
X209675000Y-109175000I0J250000D01*
G01*
X209675000Y-108500000D01*
G75*
G02*
X209925000Y-108250000I250000J0D01*
G01*
G37*
G36*
G01*
X209925000Y-106175000D02*
X210875000Y-106175000D01*
G75*
G02*
X211125000Y-106425000I0J-250000D01*
G01*
X211125000Y-107100000D01*
G75*
G02*
X210875000Y-107350000I-250000J0D01*
G01*
X209925000Y-107350000D01*
G75*
G02*
X209675000Y-107100000I0J250000D01*
G01*
X209675000Y-106425000D01*
G75*
G02*
X209925000Y-106175000I250000J0D01*
G01*
G37*
%TD*%
%TO.C,U2*%
G36*
G01*
X153600000Y-116800000D02*
X152275000Y-116800000D01*
G75*
G02*
X152200000Y-116725000I0J75000D01*
G01*
X152200000Y-116575000D01*
G75*
G02*
X152275000Y-116500000I75000J0D01*
G01*
X153600000Y-116500000D01*
G75*
G02*
X153675000Y-116575000I0J-75000D01*
G01*
X153675000Y-116725000D01*
G75*
G02*
X153600000Y-116800000I-75000J0D01*
G01*
G37*
G36*
G01*
X153600000Y-116300000D02*
X152275000Y-116300000D01*
G75*
G02*
X152200000Y-116225000I0J75000D01*
G01*
X152200000Y-116075000D01*
G75*
G02*
X152275000Y-116000000I75000J0D01*
G01*
X153600000Y-116000000D01*
G75*
G02*
X153675000Y-116075000I0J-75000D01*
G01*
X153675000Y-116225000D01*
G75*
G02*
X153600000Y-116300000I-75000J0D01*
G01*
G37*
G36*
G01*
X153600000Y-115800000D02*
X152275000Y-115800000D01*
G75*
G02*
X152200000Y-115725000I0J75000D01*
G01*
X152200000Y-115575000D01*
G75*
G02*
X152275000Y-115500000I75000J0D01*
G01*
X153600000Y-115500000D01*
G75*
G02*
X153675000Y-115575000I0J-75000D01*
G01*
X153675000Y-115725000D01*
G75*
G02*
X153600000Y-115800000I-75000J0D01*
G01*
G37*
G36*
G01*
X153600000Y-115300000D02*
X152275000Y-115300000D01*
G75*
G02*
X152200000Y-115225000I0J75000D01*
G01*
X152200000Y-115075000D01*
G75*
G02*
X152275000Y-115000000I75000J0D01*
G01*
X153600000Y-115000000D01*
G75*
G02*
X153675000Y-115075000I0J-75000D01*
G01*
X153675000Y-115225000D01*
G75*
G02*
X153600000Y-115300000I-75000J0D01*
G01*
G37*
G36*
G01*
X153600000Y-114800000D02*
X152275000Y-114800000D01*
G75*
G02*
X152200000Y-114725000I0J75000D01*
G01*
X152200000Y-114575000D01*
G75*
G02*
X152275000Y-114500000I75000J0D01*
G01*
X153600000Y-114500000D01*
G75*
G02*
X153675000Y-114575000I0J-75000D01*
G01*
X153675000Y-114725000D01*
G75*
G02*
X153600000Y-114800000I-75000J0D01*
G01*
G37*
G36*
G01*
X153600000Y-114300000D02*
X152275000Y-114300000D01*
G75*
G02*
X152200000Y-114225000I0J75000D01*
G01*
X152200000Y-114075000D01*
G75*
G02*
X152275000Y-114000000I75000J0D01*
G01*
X153600000Y-114000000D01*
G75*
G02*
X153675000Y-114075000I0J-75000D01*
G01*
X153675000Y-114225000D01*
G75*
G02*
X153600000Y-114300000I-75000J0D01*
G01*
G37*
G36*
G01*
X153600000Y-113800000D02*
X152275000Y-113800000D01*
G75*
G02*
X152200000Y-113725000I0J75000D01*
G01*
X152200000Y-113575000D01*
G75*
G02*
X152275000Y-113500000I75000J0D01*
G01*
X153600000Y-113500000D01*
G75*
G02*
X153675000Y-113575000I0J-75000D01*
G01*
X153675000Y-113725000D01*
G75*
G02*
X153600000Y-113800000I-75000J0D01*
G01*
G37*
G36*
G01*
X153600000Y-113300000D02*
X152275000Y-113300000D01*
G75*
G02*
X152200000Y-113225000I0J75000D01*
G01*
X152200000Y-113075000D01*
G75*
G02*
X152275000Y-113000000I75000J0D01*
G01*
X153600000Y-113000000D01*
G75*
G02*
X153675000Y-113075000I0J-75000D01*
G01*
X153675000Y-113225000D01*
G75*
G02*
X153600000Y-113300000I-75000J0D01*
G01*
G37*
G36*
G01*
X153600000Y-112800000D02*
X152275000Y-112800000D01*
G75*
G02*
X152200000Y-112725000I0J75000D01*
G01*
X152200000Y-112575000D01*
G75*
G02*
X152275000Y-112500000I75000J0D01*
G01*
X153600000Y-112500000D01*
G75*
G02*
X153675000Y-112575000I0J-75000D01*
G01*
X153675000Y-112725000D01*
G75*
G02*
X153600000Y-112800000I-75000J0D01*
G01*
G37*
G36*
G01*
X153600000Y-112300000D02*
X152275000Y-112300000D01*
G75*
G02*
X152200000Y-112225000I0J75000D01*
G01*
X152200000Y-112075000D01*
G75*
G02*
X152275000Y-112000000I75000J0D01*
G01*
X153600000Y-112000000D01*
G75*
G02*
X153675000Y-112075000I0J-75000D01*
G01*
X153675000Y-112225000D01*
G75*
G02*
X153600000Y-112300000I-75000J0D01*
G01*
G37*
G36*
G01*
X153600000Y-111800000D02*
X152275000Y-111800000D01*
G75*
G02*
X152200000Y-111725000I0J75000D01*
G01*
X152200000Y-111575000D01*
G75*
G02*
X152275000Y-111500000I75000J0D01*
G01*
X153600000Y-111500000D01*
G75*
G02*
X153675000Y-111575000I0J-75000D01*
G01*
X153675000Y-111725000D01*
G75*
G02*
X153600000Y-111800000I-75000J0D01*
G01*
G37*
G36*
G01*
X153600000Y-111300000D02*
X152275000Y-111300000D01*
G75*
G02*
X152200000Y-111225000I0J75000D01*
G01*
X152200000Y-111075000D01*
G75*
G02*
X152275000Y-111000000I75000J0D01*
G01*
X153600000Y-111000000D01*
G75*
G02*
X153675000Y-111075000I0J-75000D01*
G01*
X153675000Y-111225000D01*
G75*
G02*
X153600000Y-111300000I-75000J0D01*
G01*
G37*
G36*
G01*
X154425000Y-110475000D02*
X154275000Y-110475000D01*
G75*
G02*
X154200000Y-110400000I0J75000D01*
G01*
X154200000Y-109075000D01*
G75*
G02*
X154275000Y-109000000I75000J0D01*
G01*
X154425000Y-109000000D01*
G75*
G02*
X154500000Y-109075000I0J-75000D01*
G01*
X154500000Y-110400000D01*
G75*
G02*
X154425000Y-110475000I-75000J0D01*
G01*
G37*
G36*
G01*
X154925000Y-110475000D02*
X154775000Y-110475000D01*
G75*
G02*
X154700000Y-110400000I0J75000D01*
G01*
X154700000Y-109075000D01*
G75*
G02*
X154775000Y-109000000I75000J0D01*
G01*
X154925000Y-109000000D01*
G75*
G02*
X155000000Y-109075000I0J-75000D01*
G01*
X155000000Y-110400000D01*
G75*
G02*
X154925000Y-110475000I-75000J0D01*
G01*
G37*
G36*
G01*
X155425000Y-110475000D02*
X155275000Y-110475000D01*
G75*
G02*
X155200000Y-110400000I0J75000D01*
G01*
X155200000Y-109075000D01*
G75*
G02*
X155275000Y-109000000I75000J0D01*
G01*
X155425000Y-109000000D01*
G75*
G02*
X155500000Y-109075000I0J-75000D01*
G01*
X155500000Y-110400000D01*
G75*
G02*
X155425000Y-110475000I-75000J0D01*
G01*
G37*
G36*
G01*
X155925000Y-110475000D02*
X155775000Y-110475000D01*
G75*
G02*
X155700000Y-110400000I0J75000D01*
G01*
X155700000Y-109075000D01*
G75*
G02*
X155775000Y-109000000I75000J0D01*
G01*
X155925000Y-109000000D01*
G75*
G02*
X156000000Y-109075000I0J-75000D01*
G01*
X156000000Y-110400000D01*
G75*
G02*
X155925000Y-110475000I-75000J0D01*
G01*
G37*
G36*
G01*
X156425000Y-110475000D02*
X156275000Y-110475000D01*
G75*
G02*
X156200000Y-110400000I0J75000D01*
G01*
X156200000Y-109075000D01*
G75*
G02*
X156275000Y-109000000I75000J0D01*
G01*
X156425000Y-109000000D01*
G75*
G02*
X156500000Y-109075000I0J-75000D01*
G01*
X156500000Y-110400000D01*
G75*
G02*
X156425000Y-110475000I-75000J0D01*
G01*
G37*
G36*
G01*
X156925000Y-110475000D02*
X156775000Y-110475000D01*
G75*
G02*
X156700000Y-110400000I0J75000D01*
G01*
X156700000Y-109075000D01*
G75*
G02*
X156775000Y-109000000I75000J0D01*
G01*
X156925000Y-109000000D01*
G75*
G02*
X157000000Y-109075000I0J-75000D01*
G01*
X157000000Y-110400000D01*
G75*
G02*
X156925000Y-110475000I-75000J0D01*
G01*
G37*
G36*
G01*
X157425000Y-110475000D02*
X157275000Y-110475000D01*
G75*
G02*
X157200000Y-110400000I0J75000D01*
G01*
X157200000Y-109075000D01*
G75*
G02*
X157275000Y-109000000I75000J0D01*
G01*
X157425000Y-109000000D01*
G75*
G02*
X157500000Y-109075000I0J-75000D01*
G01*
X157500000Y-110400000D01*
G75*
G02*
X157425000Y-110475000I-75000J0D01*
G01*
G37*
G36*
G01*
X157925000Y-110475000D02*
X157775000Y-110475000D01*
G75*
G02*
X157700000Y-110400000I0J75000D01*
G01*
X157700000Y-109075000D01*
G75*
G02*
X157775000Y-109000000I75000J0D01*
G01*
X157925000Y-109000000D01*
G75*
G02*
X158000000Y-109075000I0J-75000D01*
G01*
X158000000Y-110400000D01*
G75*
G02*
X157925000Y-110475000I-75000J0D01*
G01*
G37*
G36*
G01*
X158425000Y-110475000D02*
X158275000Y-110475000D01*
G75*
G02*
X158200000Y-110400000I0J75000D01*
G01*
X158200000Y-109075000D01*
G75*
G02*
X158275000Y-109000000I75000J0D01*
G01*
X158425000Y-109000000D01*
G75*
G02*
X158500000Y-109075000I0J-75000D01*
G01*
X158500000Y-110400000D01*
G75*
G02*
X158425000Y-110475000I-75000J0D01*
G01*
G37*
G36*
G01*
X158925000Y-110475000D02*
X158775000Y-110475000D01*
G75*
G02*
X158700000Y-110400000I0J75000D01*
G01*
X158700000Y-109075000D01*
G75*
G02*
X158775000Y-109000000I75000J0D01*
G01*
X158925000Y-109000000D01*
G75*
G02*
X159000000Y-109075000I0J-75000D01*
G01*
X159000000Y-110400000D01*
G75*
G02*
X158925000Y-110475000I-75000J0D01*
G01*
G37*
G36*
G01*
X159425000Y-110475000D02*
X159275000Y-110475000D01*
G75*
G02*
X159200000Y-110400000I0J75000D01*
G01*
X159200000Y-109075000D01*
G75*
G02*
X159275000Y-109000000I75000J0D01*
G01*
X159425000Y-109000000D01*
G75*
G02*
X159500000Y-109075000I0J-75000D01*
G01*
X159500000Y-110400000D01*
G75*
G02*
X159425000Y-110475000I-75000J0D01*
G01*
G37*
G36*
G01*
X159925000Y-110475000D02*
X159775000Y-110475000D01*
G75*
G02*
X159700000Y-110400000I0J75000D01*
G01*
X159700000Y-109075000D01*
G75*
G02*
X159775000Y-109000000I75000J0D01*
G01*
X159925000Y-109000000D01*
G75*
G02*
X160000000Y-109075000I0J-75000D01*
G01*
X160000000Y-110400000D01*
G75*
G02*
X159925000Y-110475000I-75000J0D01*
G01*
G37*
G36*
G01*
X161925000Y-111300000D02*
X160600000Y-111300000D01*
G75*
G02*
X160525000Y-111225000I0J75000D01*
G01*
X160525000Y-111075000D01*
G75*
G02*
X160600000Y-111000000I75000J0D01*
G01*
X161925000Y-111000000D01*
G75*
G02*
X162000000Y-111075000I0J-75000D01*
G01*
X162000000Y-111225000D01*
G75*
G02*
X161925000Y-111300000I-75000J0D01*
G01*
G37*
G36*
G01*
X161925000Y-111800000D02*
X160600000Y-111800000D01*
G75*
G02*
X160525000Y-111725000I0J75000D01*
G01*
X160525000Y-111575000D01*
G75*
G02*
X160600000Y-111500000I75000J0D01*
G01*
X161925000Y-111500000D01*
G75*
G02*
X162000000Y-111575000I0J-75000D01*
G01*
X162000000Y-111725000D01*
G75*
G02*
X161925000Y-111800000I-75000J0D01*
G01*
G37*
G36*
G01*
X161925000Y-112300000D02*
X160600000Y-112300000D01*
G75*
G02*
X160525000Y-112225000I0J75000D01*
G01*
X160525000Y-112075000D01*
G75*
G02*
X160600000Y-112000000I75000J0D01*
G01*
X161925000Y-112000000D01*
G75*
G02*
X162000000Y-112075000I0J-75000D01*
G01*
X162000000Y-112225000D01*
G75*
G02*
X161925000Y-112300000I-75000J0D01*
G01*
G37*
G36*
G01*
X161925000Y-112800000D02*
X160600000Y-112800000D01*
G75*
G02*
X160525000Y-112725000I0J75000D01*
G01*
X160525000Y-112575000D01*
G75*
G02*
X160600000Y-112500000I75000J0D01*
G01*
X161925000Y-112500000D01*
G75*
G02*
X162000000Y-112575000I0J-75000D01*
G01*
X162000000Y-112725000D01*
G75*
G02*
X161925000Y-112800000I-75000J0D01*
G01*
G37*
G36*
G01*
X161925000Y-113300000D02*
X160600000Y-113300000D01*
G75*
G02*
X160525000Y-113225000I0J75000D01*
G01*
X160525000Y-113075000D01*
G75*
G02*
X160600000Y-113000000I75000J0D01*
G01*
X161925000Y-113000000D01*
G75*
G02*
X162000000Y-113075000I0J-75000D01*
G01*
X162000000Y-113225000D01*
G75*
G02*
X161925000Y-113300000I-75000J0D01*
G01*
G37*
G36*
G01*
X161925000Y-113800000D02*
X160600000Y-113800000D01*
G75*
G02*
X160525000Y-113725000I0J75000D01*
G01*
X160525000Y-113575000D01*
G75*
G02*
X160600000Y-113500000I75000J0D01*
G01*
X161925000Y-113500000D01*
G75*
G02*
X162000000Y-113575000I0J-75000D01*
G01*
X162000000Y-113725000D01*
G75*
G02*
X161925000Y-113800000I-75000J0D01*
G01*
G37*
G36*
G01*
X161925000Y-114300000D02*
X160600000Y-114300000D01*
G75*
G02*
X160525000Y-114225000I0J75000D01*
G01*
X160525000Y-114075000D01*
G75*
G02*
X160600000Y-114000000I75000J0D01*
G01*
X161925000Y-114000000D01*
G75*
G02*
X162000000Y-114075000I0J-75000D01*
G01*
X162000000Y-114225000D01*
G75*
G02*
X161925000Y-114300000I-75000J0D01*
G01*
G37*
G36*
G01*
X161925000Y-114800000D02*
X160600000Y-114800000D01*
G75*
G02*
X160525000Y-114725000I0J75000D01*
G01*
X160525000Y-114575000D01*
G75*
G02*
X160600000Y-114500000I75000J0D01*
G01*
X161925000Y-114500000D01*
G75*
G02*
X162000000Y-114575000I0J-75000D01*
G01*
X162000000Y-114725000D01*
G75*
G02*
X161925000Y-114800000I-75000J0D01*
G01*
G37*
G36*
G01*
X161925000Y-115300000D02*
X160600000Y-115300000D01*
G75*
G02*
X160525000Y-115225000I0J75000D01*
G01*
X160525000Y-115075000D01*
G75*
G02*
X160600000Y-115000000I75000J0D01*
G01*
X161925000Y-115000000D01*
G75*
G02*
X162000000Y-115075000I0J-75000D01*
G01*
X162000000Y-115225000D01*
G75*
G02*
X161925000Y-115300000I-75000J0D01*
G01*
G37*
G36*
G01*
X161925000Y-115800000D02*
X160600000Y-115800000D01*
G75*
G02*
X160525000Y-115725000I0J75000D01*
G01*
X160525000Y-115575000D01*
G75*
G02*
X160600000Y-115500000I75000J0D01*
G01*
X161925000Y-115500000D01*
G75*
G02*
X162000000Y-115575000I0J-75000D01*
G01*
X162000000Y-115725000D01*
G75*
G02*
X161925000Y-115800000I-75000J0D01*
G01*
G37*
G36*
G01*
X161925000Y-116300000D02*
X160600000Y-116300000D01*
G75*
G02*
X160525000Y-116225000I0J75000D01*
G01*
X160525000Y-116075000D01*
G75*
G02*
X160600000Y-116000000I75000J0D01*
G01*
X161925000Y-116000000D01*
G75*
G02*
X162000000Y-116075000I0J-75000D01*
G01*
X162000000Y-116225000D01*
G75*
G02*
X161925000Y-116300000I-75000J0D01*
G01*
G37*
G36*
G01*
X161925000Y-116800000D02*
X160600000Y-116800000D01*
G75*
G02*
X160525000Y-116725000I0J75000D01*
G01*
X160525000Y-116575000D01*
G75*
G02*
X160600000Y-116500000I75000J0D01*
G01*
X161925000Y-116500000D01*
G75*
G02*
X162000000Y-116575000I0J-75000D01*
G01*
X162000000Y-116725000D01*
G75*
G02*
X161925000Y-116800000I-75000J0D01*
G01*
G37*
G36*
G01*
X159925000Y-118800000D02*
X159775000Y-118800000D01*
G75*
G02*
X159700000Y-118725000I0J75000D01*
G01*
X159700000Y-117400000D01*
G75*
G02*
X159775000Y-117325000I75000J0D01*
G01*
X159925000Y-117325000D01*
G75*
G02*
X160000000Y-117400000I0J-75000D01*
G01*
X160000000Y-118725000D01*
G75*
G02*
X159925000Y-118800000I-75000J0D01*
G01*
G37*
G36*
G01*
X159425000Y-118800000D02*
X159275000Y-118800000D01*
G75*
G02*
X159200000Y-118725000I0J75000D01*
G01*
X159200000Y-117400000D01*
G75*
G02*
X159275000Y-117325000I75000J0D01*
G01*
X159425000Y-117325000D01*
G75*
G02*
X159500000Y-117400000I0J-75000D01*
G01*
X159500000Y-118725000D01*
G75*
G02*
X159425000Y-118800000I-75000J0D01*
G01*
G37*
G36*
G01*
X158925000Y-118800000D02*
X158775000Y-118800000D01*
G75*
G02*
X158700000Y-118725000I0J75000D01*
G01*
X158700000Y-117400000D01*
G75*
G02*
X158775000Y-117325000I75000J0D01*
G01*
X158925000Y-117325000D01*
G75*
G02*
X159000000Y-117400000I0J-75000D01*
G01*
X159000000Y-118725000D01*
G75*
G02*
X158925000Y-118800000I-75000J0D01*
G01*
G37*
G36*
G01*
X158425000Y-118800000D02*
X158275000Y-118800000D01*
G75*
G02*
X158200000Y-118725000I0J75000D01*
G01*
X158200000Y-117400000D01*
G75*
G02*
X158275000Y-117325000I75000J0D01*
G01*
X158425000Y-117325000D01*
G75*
G02*
X158500000Y-117400000I0J-75000D01*
G01*
X158500000Y-118725000D01*
G75*
G02*
X158425000Y-118800000I-75000J0D01*
G01*
G37*
G36*
G01*
X157925000Y-118800000D02*
X157775000Y-118800000D01*
G75*
G02*
X157700000Y-118725000I0J75000D01*
G01*
X157700000Y-117400000D01*
G75*
G02*
X157775000Y-117325000I75000J0D01*
G01*
X157925000Y-117325000D01*
G75*
G02*
X158000000Y-117400000I0J-75000D01*
G01*
X158000000Y-118725000D01*
G75*
G02*
X157925000Y-118800000I-75000J0D01*
G01*
G37*
G36*
G01*
X157425000Y-118800000D02*
X157275000Y-118800000D01*
G75*
G02*
X157200000Y-118725000I0J75000D01*
G01*
X157200000Y-117400000D01*
G75*
G02*
X157275000Y-117325000I75000J0D01*
G01*
X157425000Y-117325000D01*
G75*
G02*
X157500000Y-117400000I0J-75000D01*
G01*
X157500000Y-118725000D01*
G75*
G02*
X157425000Y-118800000I-75000J0D01*
G01*
G37*
G36*
G01*
X156925000Y-118800000D02*
X156775000Y-118800000D01*
G75*
G02*
X156700000Y-118725000I0J75000D01*
G01*
X156700000Y-117400000D01*
G75*
G02*
X156775000Y-117325000I75000J0D01*
G01*
X156925000Y-117325000D01*
G75*
G02*
X157000000Y-117400000I0J-75000D01*
G01*
X157000000Y-118725000D01*
G75*
G02*
X156925000Y-118800000I-75000J0D01*
G01*
G37*
G36*
G01*
X156425000Y-118800000D02*
X156275000Y-118800000D01*
G75*
G02*
X156200000Y-118725000I0J75000D01*
G01*
X156200000Y-117400000D01*
G75*
G02*
X156275000Y-117325000I75000J0D01*
G01*
X156425000Y-117325000D01*
G75*
G02*
X156500000Y-117400000I0J-75000D01*
G01*
X156500000Y-118725000D01*
G75*
G02*
X156425000Y-118800000I-75000J0D01*
G01*
G37*
G36*
G01*
X155925000Y-118800000D02*
X155775000Y-118800000D01*
G75*
G02*
X155700000Y-118725000I0J75000D01*
G01*
X155700000Y-117400000D01*
G75*
G02*
X155775000Y-117325000I75000J0D01*
G01*
X155925000Y-117325000D01*
G75*
G02*
X156000000Y-117400000I0J-75000D01*
G01*
X156000000Y-118725000D01*
G75*
G02*
X155925000Y-118800000I-75000J0D01*
G01*
G37*
G36*
G01*
X155425000Y-118800000D02*
X155275000Y-118800000D01*
G75*
G02*
X155200000Y-118725000I0J75000D01*
G01*
X155200000Y-117400000D01*
G75*
G02*
X155275000Y-117325000I75000J0D01*
G01*
X155425000Y-117325000D01*
G75*
G02*
X155500000Y-117400000I0J-75000D01*
G01*
X155500000Y-118725000D01*
G75*
G02*
X155425000Y-118800000I-75000J0D01*
G01*
G37*
G36*
G01*
X154925000Y-118800000D02*
X154775000Y-118800000D01*
G75*
G02*
X154700000Y-118725000I0J75000D01*
G01*
X154700000Y-117400000D01*
G75*
G02*
X154775000Y-117325000I75000J0D01*
G01*
X154925000Y-117325000D01*
G75*
G02*
X155000000Y-117400000I0J-75000D01*
G01*
X155000000Y-118725000D01*
G75*
G02*
X154925000Y-118800000I-75000J0D01*
G01*
G37*
G36*
G01*
X154425000Y-118800000D02*
X154275000Y-118800000D01*
G75*
G02*
X154200000Y-118725000I0J75000D01*
G01*
X154200000Y-117400000D01*
G75*
G02*
X154275000Y-117325000I75000J0D01*
G01*
X154425000Y-117325000D01*
G75*
G02*
X154500000Y-117400000I0J-75000D01*
G01*
X154500000Y-118725000D01*
G75*
G02*
X154425000Y-118800000I-75000J0D01*
G01*
G37*
%TD*%
D13*
%TO.C,U1*%
X214600000Y-113950000D03*
X219200000Y-113950000D03*
X216900000Y-113950000D03*
D14*
X216900000Y-107650000D03*
%TD*%
%TO.C,C9*%
G36*
G01*
X147325000Y-110850000D02*
X148275000Y-110850000D01*
G75*
G02*
X148525000Y-111100000I0J-250000D01*
G01*
X148525000Y-111775000D01*
G75*
G02*
X148275000Y-112025000I-250000J0D01*
G01*
X147325000Y-112025000D01*
G75*
G02*
X147075000Y-111775000I0J250000D01*
G01*
X147075000Y-111100000D01*
G75*
G02*
X147325000Y-110850000I250000J0D01*
G01*
G37*
G36*
G01*
X147325000Y-108775000D02*
X148275000Y-108775000D01*
G75*
G02*
X148525000Y-109025000I0J-250000D01*
G01*
X148525000Y-109700000D01*
G75*
G02*
X148275000Y-109950000I-250000J0D01*
G01*
X147325000Y-109950000D01*
G75*
G02*
X147075000Y-109700000I0J250000D01*
G01*
X147075000Y-109025000D01*
G75*
G02*
X147325000Y-108775000I250000J0D01*
G01*
G37*
%TD*%
%TO.C,C6*%
G36*
G01*
X213855000Y-117022056D02*
X213855000Y-117972056D01*
G75*
G02*
X213605000Y-118222056I-250000J0D01*
G01*
X212930000Y-118222056D01*
G75*
G02*
X212680000Y-117972056I0J250000D01*
G01*
X212680000Y-117022056D01*
G75*
G02*
X212930000Y-116772056I250000J0D01*
G01*
X213605000Y-116772056D01*
G75*
G02*
X213855000Y-117022056I0J-250000D01*
G01*
G37*
G36*
G01*
X211780000Y-117022056D02*
X211780000Y-117972056D01*
G75*
G02*
X211530000Y-118222056I-250000J0D01*
G01*
X210855000Y-118222056D01*
G75*
G02*
X210605000Y-117972056I0J250000D01*
G01*
X210605000Y-117022056D01*
G75*
G02*
X210855000Y-116772056I250000J0D01*
G01*
X211530000Y-116772056D01*
G75*
G02*
X211780000Y-117022056I0J-250000D01*
G01*
G37*
%TD*%
D15*
%TO.C,Y1*%
X151262500Y-125400000D03*
X163137500Y-125400000D03*
%TD*%
%TO.C,U3*%
G36*
G01*
X132400000Y-108345000D02*
X132400000Y-108045000D01*
G75*
G02*
X132550000Y-107895000I150000J0D01*
G01*
X134200000Y-107895000D01*
G75*
G02*
X134350000Y-108045000I0J-150000D01*
G01*
X134350000Y-108345000D01*
G75*
G02*
X134200000Y-108495000I-150000J0D01*
G01*
X132550000Y-108495000D01*
G75*
G02*
X132400000Y-108345000I0J150000D01*
G01*
G37*
G36*
G01*
X132400000Y-109615000D02*
X132400000Y-109315000D01*
G75*
G02*
X132550000Y-109165000I150000J0D01*
G01*
X134200000Y-109165000D01*
G75*
G02*
X134350000Y-109315000I0J-150000D01*
G01*
X134350000Y-109615000D01*
G75*
G02*
X134200000Y-109765000I-150000J0D01*
G01*
X132550000Y-109765000D01*
G75*
G02*
X132400000Y-109615000I0J150000D01*
G01*
G37*
G36*
G01*
X132400000Y-110885000D02*
X132400000Y-110585000D01*
G75*
G02*
X132550000Y-110435000I150000J0D01*
G01*
X134200000Y-110435000D01*
G75*
G02*
X134350000Y-110585000I0J-150000D01*
G01*
X134350000Y-110885000D01*
G75*
G02*
X134200000Y-111035000I-150000J0D01*
G01*
X132550000Y-111035000D01*
G75*
G02*
X132400000Y-110885000I0J150000D01*
G01*
G37*
G36*
G01*
X132400000Y-112155000D02*
X132400000Y-111855000D01*
G75*
G02*
X132550000Y-111705000I150000J0D01*
G01*
X134200000Y-111705000D01*
G75*
G02*
X134350000Y-111855000I0J-150000D01*
G01*
X134350000Y-112155000D01*
G75*
G02*
X134200000Y-112305000I-150000J0D01*
G01*
X132550000Y-112305000D01*
G75*
G02*
X132400000Y-112155000I0J150000D01*
G01*
G37*
G36*
G01*
X127450000Y-112155000D02*
X127450000Y-111855000D01*
G75*
G02*
X127600000Y-111705000I150000J0D01*
G01*
X129250000Y-111705000D01*
G75*
G02*
X129400000Y-111855000I0J-150000D01*
G01*
X129400000Y-112155000D01*
G75*
G02*
X129250000Y-112305000I-150000J0D01*
G01*
X127600000Y-112305000D01*
G75*
G02*
X127450000Y-112155000I0J150000D01*
G01*
G37*
G36*
G01*
X127450000Y-110885000D02*
X127450000Y-110585000D01*
G75*
G02*
X127600000Y-110435000I150000J0D01*
G01*
X129250000Y-110435000D01*
G75*
G02*
X129400000Y-110585000I0J-150000D01*
G01*
X129400000Y-110885000D01*
G75*
G02*
X129250000Y-111035000I-150000J0D01*
G01*
X127600000Y-111035000D01*
G75*
G02*
X127450000Y-110885000I0J150000D01*
G01*
G37*
G36*
G01*
X127450000Y-109615000D02*
X127450000Y-109315000D01*
G75*
G02*
X127600000Y-109165000I150000J0D01*
G01*
X129250000Y-109165000D01*
G75*
G02*
X129400000Y-109315000I0J-150000D01*
G01*
X129400000Y-109615000D01*
G75*
G02*
X129250000Y-109765000I-150000J0D01*
G01*
X127600000Y-109765000D01*
G75*
G02*
X127450000Y-109615000I0J150000D01*
G01*
G37*
G36*
G01*
X127450000Y-108345000D02*
X127450000Y-108045000D01*
G75*
G02*
X127600000Y-107895000I150000J0D01*
G01*
X129250000Y-107895000D01*
G75*
G02*
X129400000Y-108045000I0J-150000D01*
G01*
X129400000Y-108345000D01*
G75*
G02*
X129250000Y-108495000I-150000J0D01*
G01*
X127600000Y-108495000D01*
G75*
G02*
X127450000Y-108345000I0J150000D01*
G01*
G37*
%TD*%
%TO.C,R5*%
G36*
G01*
X177820001Y-126000000D02*
X176919999Y-126000000D01*
G75*
G02*
X176670000Y-125750001I0J249999D01*
G01*
X176670000Y-125049999D01*
G75*
G02*
X176919999Y-124800000I249999J0D01*
G01*
X177820001Y-124800000D01*
G75*
G02*
X178070000Y-125049999I0J-249999D01*
G01*
X178070000Y-125750001D01*
G75*
G02*
X177820001Y-126000000I-249999J0D01*
G01*
G37*
G36*
G01*
X177820001Y-128000000D02*
X176919999Y-128000000D01*
G75*
G02*
X176670000Y-127750001I0J249999D01*
G01*
X176670000Y-127049999D01*
G75*
G02*
X176919999Y-126800000I249999J0D01*
G01*
X177820001Y-126800000D01*
G75*
G02*
X178070000Y-127049999I0J-249999D01*
G01*
X178070000Y-127750001D01*
G75*
G02*
X177820001Y-128000000I-249999J0D01*
G01*
G37*
%TD*%
%TO.C,R4*%
G36*
G01*
X157120000Y-129850001D02*
X157120000Y-128949999D01*
G75*
G02*
X157369999Y-128700000I249999J0D01*
G01*
X158070001Y-128700000D01*
G75*
G02*
X158320000Y-128949999I0J-249999D01*
G01*
X158320000Y-129850001D01*
G75*
G02*
X158070001Y-130100000I-249999J0D01*
G01*
X157369999Y-130100000D01*
G75*
G02*
X157120000Y-129850001I0J249999D01*
G01*
G37*
G36*
G01*
X155120000Y-129850001D02*
X155120000Y-128949999D01*
G75*
G02*
X155369999Y-128700000I249999J0D01*
G01*
X156070001Y-128700000D01*
G75*
G02*
X156320000Y-128949999I0J-249999D01*
G01*
X156320000Y-129850001D01*
G75*
G02*
X156070001Y-130100000I-249999J0D01*
G01*
X155369999Y-130100000D01*
G75*
G02*
X155120000Y-129850001I0J249999D01*
G01*
G37*
%TD*%
%TO.C,R3*%
G36*
G01*
X174645001Y-126000000D02*
X173744999Y-126000000D01*
G75*
G02*
X173495000Y-125750001I0J249999D01*
G01*
X173495000Y-125049999D01*
G75*
G02*
X173744999Y-124800000I249999J0D01*
G01*
X174645001Y-124800000D01*
G75*
G02*
X174895000Y-125049999I0J-249999D01*
G01*
X174895000Y-125750001D01*
G75*
G02*
X174645001Y-126000000I-249999J0D01*
G01*
G37*
G36*
G01*
X174645001Y-128000000D02*
X173744999Y-128000000D01*
G75*
G02*
X173495000Y-127750001I0J249999D01*
G01*
X173495000Y-127049999D01*
G75*
G02*
X173744999Y-126800000I249999J0D01*
G01*
X174645001Y-126800000D01*
G75*
G02*
X174895000Y-127049999I0J-249999D01*
G01*
X174895000Y-127750001D01*
G75*
G02*
X174645001Y-128000000I-249999J0D01*
G01*
G37*
%TD*%
%TO.C,R2*%
G36*
G01*
X188949999Y-126900000D02*
X189850001Y-126900000D01*
G75*
G02*
X190100000Y-127149999I0J-249999D01*
G01*
X190100000Y-127850001D01*
G75*
G02*
X189850001Y-128100000I-249999J0D01*
G01*
X188949999Y-128100000D01*
G75*
G02*
X188700000Y-127850001I0J249999D01*
G01*
X188700000Y-127149999D01*
G75*
G02*
X188949999Y-126900000I249999J0D01*
G01*
G37*
G36*
G01*
X188949999Y-124900000D02*
X189850001Y-124900000D01*
G75*
G02*
X190100000Y-125149999I0J-249999D01*
G01*
X190100000Y-125850001D01*
G75*
G02*
X189850001Y-126100000I-249999J0D01*
G01*
X188949999Y-126100000D01*
G75*
G02*
X188700000Y-125850001I0J249999D01*
G01*
X188700000Y-125149999D01*
G75*
G02*
X188949999Y-124900000I249999J0D01*
G01*
G37*
%TD*%
%TO.C,R1*%
G36*
G01*
X219400000Y-101049999D02*
X219400000Y-101950001D01*
G75*
G02*
X219150001Y-102200000I-249999J0D01*
G01*
X218449999Y-102200000D01*
G75*
G02*
X218200000Y-101950001I0J249999D01*
G01*
X218200000Y-101049999D01*
G75*
G02*
X218449999Y-100800000I249999J0D01*
G01*
X219150001Y-100800000D01*
G75*
G02*
X219400000Y-101049999I0J-249999D01*
G01*
G37*
G36*
G01*
X221400000Y-101049999D02*
X221400000Y-101950001D01*
G75*
G02*
X221150001Y-102200000I-249999J0D01*
G01*
X220449999Y-102200000D01*
G75*
G02*
X220200000Y-101950001I0J249999D01*
G01*
X220200000Y-101049999D01*
G75*
G02*
X220449999Y-100800000I249999J0D01*
G01*
X221150001Y-100800000D01*
G75*
G02*
X221400000Y-101049999I0J-249999D01*
G01*
G37*
%TD*%
%TO.C,D1*%
G36*
G01*
X225150000Y-101049999D02*
X225150000Y-101950001D01*
G75*
G02*
X224900001Y-102200000I-249999J0D01*
G01*
X224249999Y-102200000D01*
G75*
G02*
X224000000Y-101950001I0J249999D01*
G01*
X224000000Y-101049999D01*
G75*
G02*
X224249999Y-100800000I249999J0D01*
G01*
X224900001Y-100800000D01*
G75*
G02*
X225150000Y-101049999I0J-249999D01*
G01*
G37*
G36*
G01*
X227200000Y-101049999D02*
X227200000Y-101950001D01*
G75*
G02*
X226950001Y-102200000I-249999J0D01*
G01*
X226299999Y-102200000D01*
G75*
G02*
X226050000Y-101950001I0J249999D01*
G01*
X226050000Y-101049999D01*
G75*
G02*
X226299999Y-100800000I249999J0D01*
G01*
X226950001Y-100800000D01*
G75*
G02*
X227200000Y-101049999I0J-249999D01*
G01*
G37*
%TD*%
%TO.C,C12*%
G36*
G01*
X163255000Y-128895000D02*
X163255000Y-129845000D01*
G75*
G02*
X163005000Y-130095000I-250000J0D01*
G01*
X162330000Y-130095000D01*
G75*
G02*
X162080000Y-129845000I0J250000D01*
G01*
X162080000Y-128895000D01*
G75*
G02*
X162330000Y-128645000I250000J0D01*
G01*
X163005000Y-128645000D01*
G75*
G02*
X163255000Y-128895000I0J-250000D01*
G01*
G37*
G36*
G01*
X165330000Y-128895000D02*
X165330000Y-129845000D01*
G75*
G02*
X165080000Y-130095000I-250000J0D01*
G01*
X164405000Y-130095000D01*
G75*
G02*
X164155000Y-129845000I0J250000D01*
G01*
X164155000Y-128895000D01*
G75*
G02*
X164405000Y-128645000I250000J0D01*
G01*
X165080000Y-128645000D01*
G75*
G02*
X165330000Y-128895000I0J-250000D01*
G01*
G37*
%TD*%
%TO.C,C11*%
G36*
G01*
X150185000Y-129845000D02*
X150185000Y-128895000D01*
G75*
G02*
X150435000Y-128645000I250000J0D01*
G01*
X151110000Y-128645000D01*
G75*
G02*
X151360000Y-128895000I0J-250000D01*
G01*
X151360000Y-129845000D01*
G75*
G02*
X151110000Y-130095000I-250000J0D01*
G01*
X150435000Y-130095000D01*
G75*
G02*
X150185000Y-129845000I0J250000D01*
G01*
G37*
G36*
G01*
X148110000Y-129845000D02*
X148110000Y-128895000D01*
G75*
G02*
X148360000Y-128645000I250000J0D01*
G01*
X149035000Y-128645000D01*
G75*
G02*
X149285000Y-128895000I0J-250000D01*
G01*
X149285000Y-129845000D01*
G75*
G02*
X149035000Y-130095000I-250000J0D01*
G01*
X148360000Y-130095000D01*
G75*
G02*
X148110000Y-129845000I0J250000D01*
G01*
G37*
%TD*%
%TO.C,C10*%
G36*
G01*
X185725000Y-126920000D02*
X186675000Y-126920000D01*
G75*
G02*
X186925000Y-127170000I0J-250000D01*
G01*
X186925000Y-127845000D01*
G75*
G02*
X186675000Y-128095000I-250000J0D01*
G01*
X185725000Y-128095000D01*
G75*
G02*
X185475000Y-127845000I0J250000D01*
G01*
X185475000Y-127170000D01*
G75*
G02*
X185725000Y-126920000I250000J0D01*
G01*
G37*
G36*
G01*
X185725000Y-124845000D02*
X186675000Y-124845000D01*
G75*
G02*
X186925000Y-125095000I0J-250000D01*
G01*
X186925000Y-125770000D01*
G75*
G02*
X186675000Y-126020000I-250000J0D01*
G01*
X185725000Y-126020000D01*
G75*
G02*
X185475000Y-125770000I0J250000D01*
G01*
X185475000Y-125095000D01*
G75*
G02*
X185725000Y-124845000I250000J0D01*
G01*
G37*
%TD*%
%TO.C,C8*%
G36*
G01*
X165625000Y-111150000D02*
X166575000Y-111150000D01*
G75*
G02*
X166825000Y-111400000I0J-250000D01*
G01*
X166825000Y-112075000D01*
G75*
G02*
X166575000Y-112325000I-250000J0D01*
G01*
X165625000Y-112325000D01*
G75*
G02*
X165375000Y-112075000I0J250000D01*
G01*
X165375000Y-111400000D01*
G75*
G02*
X165625000Y-111150000I250000J0D01*
G01*
G37*
G36*
G01*
X165625000Y-109075000D02*
X166575000Y-109075000D01*
G75*
G02*
X166825000Y-109325000I0J-250000D01*
G01*
X166825000Y-110000000D01*
G75*
G02*
X166575000Y-110250000I-250000J0D01*
G01*
X165625000Y-110250000D01*
G75*
G02*
X165375000Y-110000000I0J250000D01*
G01*
X165375000Y-109325000D01*
G75*
G02*
X165625000Y-109075000I250000J0D01*
G01*
G37*
%TD*%
%TO.C,C7*%
G36*
G01*
X208150000Y-117975000D02*
X208150000Y-117025000D01*
G75*
G02*
X208400000Y-116775000I250000J0D01*
G01*
X209075000Y-116775000D01*
G75*
G02*
X209325000Y-117025000I0J-250000D01*
G01*
X209325000Y-117975000D01*
G75*
G02*
X209075000Y-118225000I-250000J0D01*
G01*
X208400000Y-118225000D01*
G75*
G02*
X208150000Y-117975000I0J250000D01*
G01*
G37*
G36*
G01*
X206075000Y-117975000D02*
X206075000Y-117025000D01*
G75*
G02*
X206325000Y-116775000I250000J0D01*
G01*
X207000000Y-116775000D01*
G75*
G02*
X207250000Y-117025000I0J-250000D01*
G01*
X207250000Y-117975000D01*
G75*
G02*
X207000000Y-118225000I-250000J0D01*
G01*
X206325000Y-118225000D01*
G75*
G02*
X206075000Y-117975000I0J250000D01*
G01*
G37*
%TD*%
%TO.C,C5*%
G36*
G01*
X165625000Y-117750000D02*
X166575000Y-117750000D01*
G75*
G02*
X166825000Y-118000000I0J-250000D01*
G01*
X166825000Y-118675000D01*
G75*
G02*
X166575000Y-118925000I-250000J0D01*
G01*
X165625000Y-118925000D01*
G75*
G02*
X165375000Y-118675000I0J250000D01*
G01*
X165375000Y-118000000D01*
G75*
G02*
X165625000Y-117750000I250000J0D01*
G01*
G37*
G36*
G01*
X165625000Y-115675000D02*
X166575000Y-115675000D01*
G75*
G02*
X166825000Y-115925000I0J-250000D01*
G01*
X166825000Y-116600000D01*
G75*
G02*
X166575000Y-116850000I-250000J0D01*
G01*
X165625000Y-116850000D01*
G75*
G02*
X165375000Y-116600000I0J250000D01*
G01*
X165375000Y-115925000D01*
G75*
G02*
X165625000Y-115675000I250000J0D01*
G01*
G37*
%TD*%
%TO.C,C4*%
G36*
G01*
X148275000Y-117250000D02*
X147325000Y-117250000D01*
G75*
G02*
X147075000Y-117000000I0J250000D01*
G01*
X147075000Y-116325000D01*
G75*
G02*
X147325000Y-116075000I250000J0D01*
G01*
X148275000Y-116075000D01*
G75*
G02*
X148525000Y-116325000I0J-250000D01*
G01*
X148525000Y-117000000D01*
G75*
G02*
X148275000Y-117250000I-250000J0D01*
G01*
G37*
G36*
G01*
X148275000Y-119325000D02*
X147325000Y-119325000D01*
G75*
G02*
X147075000Y-119075000I0J250000D01*
G01*
X147075000Y-118400000D01*
G75*
G02*
X147325000Y-118150000I250000J0D01*
G01*
X148275000Y-118150000D01*
G75*
G02*
X148525000Y-118400000I0J-250000D01*
G01*
X148525000Y-119075000D01*
G75*
G02*
X148275000Y-119325000I-250000J0D01*
G01*
G37*
%TD*%
%TO.C,C3*%
G36*
G01*
X223150000Y-112875000D02*
X223150000Y-111925000D01*
G75*
G02*
X223400000Y-111675000I250000J0D01*
G01*
X224075000Y-111675000D01*
G75*
G02*
X224325000Y-111925000I0J-250000D01*
G01*
X224325000Y-112875000D01*
G75*
G02*
X224075000Y-113125000I-250000J0D01*
G01*
X223400000Y-113125000D01*
G75*
G02*
X223150000Y-112875000I0J250000D01*
G01*
G37*
G36*
G01*
X221075000Y-112875000D02*
X221075000Y-111925000D01*
G75*
G02*
X221325000Y-111675000I250000J0D01*
G01*
X222000000Y-111675000D01*
G75*
G02*
X222250000Y-111925000I0J-250000D01*
G01*
X222250000Y-112875000D01*
G75*
G02*
X222000000Y-113125000I-250000J0D01*
G01*
X221325000Y-113125000D01*
G75*
G02*
X221075000Y-112875000I0J250000D01*
G01*
G37*
%TD*%
%TO.C,C2*%
G36*
G01*
X110075000Y-110287500D02*
X109125000Y-110287500D01*
G75*
G02*
X108875000Y-110037500I0J250000D01*
G01*
X108875000Y-109362500D01*
G75*
G02*
X109125000Y-109112500I250000J0D01*
G01*
X110075000Y-109112500D01*
G75*
G02*
X110325000Y-109362500I0J-250000D01*
G01*
X110325000Y-110037500D01*
G75*
G02*
X110075000Y-110287500I-250000J0D01*
G01*
G37*
G36*
G01*
X110075000Y-112362500D02*
X109125000Y-112362500D01*
G75*
G02*
X108875000Y-112112500I0J250000D01*
G01*
X108875000Y-111437500D01*
G75*
G02*
X109125000Y-111187500I250000J0D01*
G01*
X110075000Y-111187500D01*
G75*
G02*
X110325000Y-111437500I0J-250000D01*
G01*
X110325000Y-112112500D01*
G75*
G02*
X110075000Y-112362500I-250000J0D01*
G01*
G37*
%TD*%
M02*
